HIERARCHY
ROOT Hips
{
	OFFSET 0.000000 8.830580 0.000000
	CHANNELS 6 Xposition Yposition Zposition Zrotation Yrotation Xrotation 
	JOINT Spine
	{
		OFFSET 0.000000 0.010000 0.000000
		CHANNELS 3 Zrotation Yrotation Xrotation
		JOINT Spine1
		{
			OFFSET 0.000000 2.459130 0.000000
			CHANNELS 3 Zrotation Yrotation Xrotation
			JOINT Neck
			{
				OFFSET 0.000000 2.484630 0.000000
				CHANNELS 3 Zrotation Yrotation Xrotation
				JOINT Head_virtual
				{
					OFFSET 0.000000 0.000000 0.000000
					CHANNELS 3 Zrotation Yrotation Xrotation
					JOINT Head
					{
						OFFSET 0.000000 0.927525 0.000000
						CHANNELS 3 Zrotation Yrotation Xrotation
						End Site
						{
							OFFSET 0.000000 0.000000 0.000000
						}
					}
				}
				JOINT LeftUpArm_virtual
				{
					OFFSET 0.000000 0.000000 0.000000
					CHANNELS 3 Zrotation Yrotation Xrotation
					JOINT LeftUpArm
					{
						OFFSET 1.248820 0.000000 0.000000
						CHANNELS 3 Zrotation Yrotation Xrotation
						JOINT LeftForeArm
						{
							OFFSET 2.597580 0.000000 0.000000
							CHANNELS 3 Zrotation Yrotation Xrotation
							JOINT LeftHand
							{
								OFFSET 2.455420 0.000000 0.000000
								CHANNELS 3 Zrotation Yrotation Xrotation
								End Site
								{
									OFFSET 0.000000 0.000000 0.000000
								}
							}
						}
					}
				}
				JOINT RightUpArm_virtual
				{
					OFFSET -0.000000 -0.000000 -0.000000
					CHANNELS 3 Zrotation Yrotation Xrotation
					JOINT RightUpArm
					{
						OFFSET -1.248820 -0.000000 -0.000000
						CHANNELS 3 Zrotation Yrotation Xrotation
						JOINT RightForeArm
						{
							OFFSET -2.597580 -0.000000 -0.000000
							CHANNELS 3 Zrotation Yrotation Xrotation
							JOINT RightHand
							{
								OFFSET -2.455420 -0.000000 -0.000000
								CHANNELS 3 Zrotation Yrotation Xrotation
								End Site
								{
									OFFSET 0.000000 0.000000 0.000000
								}
							}
						}
					}
				}
			}
		}
	}
	JOINT LeftUpLeg
	{
		OFFSET 1.271939 0.000000 0.000000
		CHANNELS 3 Zrotation Yrotation Xrotation
		JOINT LeftLowLeg
		{
			OFFSET 0.000000 -4.342910 0.000000
			CHANNELS 3 Zrotation Yrotation Xrotation
			JOINT LeftFoot
			{
				OFFSET 0.000000 -4.487670 0.000000
				CHANNELS 3 Zrotation Yrotation Xrotation
				JOINT LeftToeBase
				{
					OFFSET 0.000000 0.000000 1.515070
					CHANNELS 3 Zrotation Yrotation Xrotation
					End Site
					{
						OFFSET 0.000000 0.000000 0.000000
					}
				}
			}
		}
	}
	JOINT RightUpLeg
	{
		OFFSET -1.271939 0.000000 0.000000
		CHANNELS 3 Zrotation Yrotation Xrotation
		JOINT RightLowLeg
		{
			OFFSET 0.000000 -4.342910 0.000000
			CHANNELS 3 Zrotation Yrotation Xrotation
			JOINT RightFoot
			{
				OFFSET 0.000000 -4.487670 0.000000
				CHANNELS 3 Zrotation Yrotation Xrotation
				JOINT RightToeBase
				{
					OFFSET 0.000000 0.000000 1.515070
					CHANNELS 3 Zrotation Yrotation Xrotation
					End Site
					{
						OFFSET 0.000000 0.000000 0.000000
					}
				}
			}
		}
	}
}
MOTION
Frames: 10
Frame Time: 0.041667
-17.670159 8.930730 40.458311 -164.544237 63.141291 -150.682546 10.896702 0.049931 8.769284 0.291094 1.192617 19.782365 0.000000 0.000000 0.000000 27.056328 -49.475963 -11.994201 -27.825862 41.554306 -100.343787 -22.819099 -9.830200 5.870200 -45.177898 -36.552399 15.650200 0.000000 -23.079500 0.000000 23.196600 7.596530 20.492100 22.936800 -1.033700 1.999140 44.935902 36.367001 9.766998 0.000000 23.881100 0.000000 -10.636700 -3.520780 10.067600 1.604457 8.544883 -29.592952 0.000000 0.000000 26.036900 -4.788631 14.887181 -7.288407 0.000000 0.000000 -10.727530 1.924684 21.875545 -27.036244 0.000000 0.000000 14.588900 12.622400 -13.835224 5.725275 0.000000 0.000000 -20.226720 
-17.707514 8.923778 40.471906 -163.867376 63.708606 -149.640658 10.936706 0.041373 9.880063 0.639342 1.063271 20.253841 0.000000 0.000000 0.000000 26.895065 -49.422657 -12.087395 -27.949502 41.393488 -100.726037 -23.045500 -10.181500 5.671350 -45.170898 -36.830002 15.910200 0.000000 -23.493700 0.000000 23.572800 7.046310 19.984301 22.997200 -1.010750 1.853440 44.693100 37.408699 9.585999 0.000000 23.555599 0.000000 -10.714600 -3.441910 10.668800 1.574204 8.758894 -30.409797 0.000000 0.000000 26.464300 -4.579600 15.537687 -7.298397 0.000000 0.000000 -10.852270 1.914389 21.856377 -27.485306 0.000000 0.000000 14.134900 12.783327 -13.832271 5.598298 0.000000 0.000000 -20.211710 
-17.741559 8.917915 40.483918 -163.324637 64.145193 -148.818378 10.882038 0.124258 11.215326 1.217918 0.976567 20.389694 0.000000 0.000000 0.000000 26.451079 -49.479667 -11.501685 -27.645659 40.975753 -101.412456 -23.627300 -10.766700 5.751550 -44.751099 -37.075802 16.041901 0.000000 -23.837299 0.000000 23.155600 6.131120 20.588699 23.033501 -0.943234 1.842730 44.123100 38.033798 9.095001 0.000000 23.514000 0.000000 -10.920900 -3.346900 10.391100 1.554393 8.816579 -31.052259 0.000000 0.000000 26.748199 -4.296125 16.255724 -7.237185 0.000000 0.000000 -11.039270 2.028242 21.721873 -27.807778 0.000000 0.000000 13.769100 11.467348 -15.082370 5.661125 0.000000 0.000000 -20.580790 
-17.773995 8.912344 40.494916 -162.909665 64.544459 -147.957062 11.268394 -0.052614 12.024206 0.717161 0.778452 21.359969 0.000000 0.000000 0.000000 26.656120 -49.096222 -11.878617 -27.112750 41.168519 -101.885537 -23.485901 -10.925900 5.402440 -44.567902 -37.700699 16.170500 0.000000 -24.253401 0.000000 23.271900 5.538200 21.086000 23.277100 -0.548465 1.777890 43.769100 39.045300 8.803009 0.000000 23.466101 0.000000 -11.151700 -3.382770 10.144700 1.454813 8.869874 -31.767842 0.000000 0.000000 26.905399 -4.006979 16.924474 -7.182619 0.000000 0.000000 -11.100870 1.867398 22.009551 -28.302570 0.000000 0.000000 13.422200 11.128285 -17.826605 5.005182 0.000000 0.000000 -20.512900 
-17.804347 8.907444 40.504071 -162.675741 65.023614 -147.018659 12.170481 -0.622238 12.207931 -1.411261 0.404922 23.207313 0.000000 0.000000 0.000000 27.755687 -48.154097 -13.465982 -26.976235 42.238798 -102.127683 -22.312500 -10.161700 4.357750 -44.705898 -38.832901 16.441000 0.000000 -24.572201 0.000000 23.312099 5.099030 21.195801 23.711500 0.511299 1.406840 44.128799 40.150002 9.005005 0.000000 23.478701 0.000000 -11.312400 -3.451090 9.553940 1.214525 8.993102 -32.627180 0.000000 0.000000 26.955000 -3.851086 17.384113 -7.142848 0.000000 0.000000 -11.116200 1.732312 21.673117 -28.967149 0.000000 0.000000 13.121800 11.126300 -20.263218 4.366940 0.000000 0.000000 -20.039420 
-17.833400 8.903146 40.512325 -162.513181 65.663028 -146.195940 12.725491 -0.804436 12.817084 -2.827624 0.276860 24.303403 0.000000 0.000000 0.000000 28.918452 -47.693755 -14.753540 -26.842036 42.898525 -102.396677 -21.688400 -9.965450 4.078860 -44.446201 -39.964199 16.176701 0.000000 -24.907301 0.000000 23.553699 4.684660 22.022800 23.920099 1.195070 1.151540 44.246700 40.883598 8.704010 0.000000 23.716999 0.000000 -11.141800 -3.461920 8.447820 0.838994 9.364009 -33.428425 0.000000 0.000000 27.040400 -3.775672 17.604082 -7.085504 0.000000 0.000000 -11.125500 1.849850 20.546134 -29.474479 0.000000 0.000000 12.826100 11.301624 -20.840045 4.227531 0.000000 0.000000 -19.896170 
-17.861683 8.898345 40.519996 -162.290107 66.496940 -145.213972 12.533608 -0.418477 13.878077 -2.585695 0.398053 24.402628 0.000000 0.000000 0.000000 29.417237 -47.809728 -15.339894 -26.302089 42.687266 -102.905715 -22.161400 -10.604700 4.508960 -43.589901 -40.728500 15.767200 0.000000 -25.524300 0.000000 23.578699 4.719610 22.088400 23.834900 1.196230 1.161790 43.536900 41.468101 8.181000 0.000000 24.120501 0.000000 -10.976000 -3.438030 7.420410 0.352434 9.942154 -34.308200 0.000000 0.000000 27.129499 -3.854347 17.678062 -7.076034 0.000000 0.000000 -11.161140 2.149351 18.861425 -30.126786 0.000000 0.000000 12.664300 11.740927 -19.148183 4.618538 0.000000 0.000000 -20.745360 
-17.885762 8.892901 40.530335 -161.864396 67.387773 -144.061313 11.889833 0.250513 15.087047 -1.295464 0.632337 24.232470 0.000000 0.000000 0.000000 29.196815 -48.054103 -15.649209 -25.156479 42.026169 -103.395128 -23.291500 -11.701700 5.419590 -42.264801 -41.454601 14.642700 0.000000 -26.233101 0.000000 23.483601 4.752840 21.685499 23.557301 0.861259 1.159710 42.468101 42.072601 7.643005 0.000000 24.562201 0.000000 -11.105100 -3.624950 6.239820 -0.216985 10.944275 -35.213284 0.000000 0.000000 27.300699 -3.981436 17.351658 -7.150173 0.000000 0.000000 -11.200860 2.352578 17.680962 -30.960110 0.000000 0.000000 12.714700 11.307817 -16.950653 5.627341 0.000000 0.000000 -20.244950 
-17.907814 8.885875 40.537563 -161.489116 68.192989 -142.857244 11.774746 0.494070 15.857905 -1.329754 0.686472 24.658989 0.000000 0.000000 0.000000 29.364044 -47.846233 -16.445771 -24.640103 41.899136 -104.119071 -23.546301 -12.033500 5.671140 -41.370899 -42.505402 13.561400 0.000000 -26.828100 0.000000 23.413700 4.950870 21.952999 23.630699 0.987361 1.115050 41.684898 43.115799 7.071991 0.000000 24.683800 0.000000 -10.977800 -3.558470 5.185320 -0.809533 11.805682 -36.215695 0.000000 0.000000 27.478100 -4.094151 17.087738 -7.290359 0.000000 0.000000 -11.171410 2.081164 17.412689 -32.096466 0.000000 0.000000 12.887200 11.814631 -15.584671 6.358298 0.000000 0.000000 -21.757450 
-17.925542 8.879353 40.542043 -161.244262 68.890004 -141.881948 11.985043 0.502397 16.544855 -2.112983 0.645483 25.357123 0.000000 0.000000 0.000000 30.196938 -47.507163 -17.569941 -24.877152 42.095537 -105.225815 -23.336399 -12.072100 5.949370 -40.348900 -43.960800 12.105900 0.000000 -27.295401 0.000000 23.284100 5.275720 21.853100 23.949699 1.355030 0.938736 41.013401 44.113300 6.863007 0.000000 24.985201 0.000000 -11.274700 -3.713020 4.989570 -1.387109 12.518973 -37.116613 0.000000 0.000000 27.698400 -4.170592 16.858313 -7.417131 0.000000 0.000000 -11.118400 1.522745 17.694710 -33.196772 0.000000 0.000000 13.134000 12.171518 -14.960557 6.758337 0.000000 0.000000 -21.334370 
